<svg xmlns="http://www.w3.org/2000/svg" viewBox="0 0 72 72" fill="none">
  <defs>
    <linearGradient id="surface" x1="8" y1="8" x2="64" y2="64" gradientUnits="userSpaceOnUse">
      <stop stop-color="#16324b" />
      <stop offset="1" stop-color="#0b1c2d" />
    </linearGradient>
    <linearGradient id="line" x1="20" y1="18" x2="56" y2="54" gradientUnits="userSpaceOnUse">
      <stop stop-color="#d8fff9" />
      <stop offset="1" stop-color="#7de2d1" />
    </linearGradient>
  </defs>
  <rect x="6" y="6" width="60" height="60" rx="20" fill="url(#surface)" />
  <rect x="6.5" y="6.5" width="59" height="59" rx="19.5" stroke="#ffffff" stroke-opacity="0.08" />
  <path
    d="M24 18H39.5C47.1 18 51.5 22.1 51.5 28C51.5 33.7 47.1 36 40 36H24"
    stroke="url(#line)"
    stroke-linecap="round"
    stroke-linejoin="round"
    stroke-width="4"
  />
  <path
    d="M24 36H40.5C48.2 36 52.7 40.1 52.7 46.2C52.7 52.2 48.1 54 39 54H24"
    stroke="url(#line)"
    stroke-linecap="round"
    stroke-linejoin="round"
    stroke-width="4"
  />
  <path d="M24 18V54" stroke="url(#line)" stroke-linecap="round" stroke-width="4" />
  <circle cx="51.5" cy="28" r="4.8" fill="#f4b866" />
  <circle cx="52.7" cy="46.2" r="4.8" fill="#7de2d1" />
  <circle cx="24" cy="36" r="3.2" fill="#d8fff9" />
</svg>
